<?xml version="1.0" encoding="UTF-8" standalone="no"?>
<!-- Created with Inkscape (http://www.inkscape.org/) -->

<svg
   xmlns:dc="http://purl.org/dc/elements/1.1/"
   xmlns:cc="http://creativecommons.org/ns#"
   xmlns:rdf="http://www.w3.org/1999/02/22-rdf-syntax-ns#"
   xmlns:svg="http://www.w3.org/2000/svg"
   xmlns="http://www.w3.org/2000/svg"
   xmlns:xlink="http://www.w3.org/1999/xlink"
   xmlns:sodipodi="http://sodipodi.sourceforge.net/DTD/sodipodi-0.dtd"
   xmlns:inkscape="http://www.inkscape.org/namespaces/inkscape"
   width="512"
   height="512"
   viewBox="0 0 135.46666 135.46667"
   version="1.1"
   id="svg8"
   inkscape:version="0.92.4 (5da689c313, 2019-01-14)"
   sodipodi:docname="EchoLogo.svg"
   inkscape:export-filename="G:\Users\david\Pictures\Fusio logo\Done\Logo echo with bg.png"
   inkscape:export-xdpi="96"
   inkscape:export-ydpi="96">
  <defs
     id="defs2">
    <linearGradient
       id="linearGradient1203"
       inkscape:collect="always">
      <stop
         id="stop1199"
         offset="0"
         style="stop-color:#000000;stop-opacity:1;" />
      <stop
         id="stop1201"
         offset="1"
         style="stop-color:#000000;stop-opacity:0.59183675" />
    </linearGradient>
    <linearGradient
       inkscape:collect="always"
       xlink:href="#linearGradient1203"
       id="linearGradient1179"
       x1="119.59844"
       y1="146.98906"
       x2="272.49426"
       y2="183.71239"
       gradientUnits="userSpaceOnUse"
       gradientTransform="translate(63.262688,-130.14671)" />
    <clipPath
       clipPathUnits="userSpaceOnUse"
       id="clipPath1447">
      <rect
         style="opacity:1;fill:none;fill-opacity:1;fill-rule:nonzero;stroke:#000000;stroke-width:2.97154951;stroke-miterlimit:4;stroke-dasharray:none;stroke-opacity:1;paint-order:stroke fill markers"
         id="rect1449"
         width="133.11386"
         height="133.37845"
         x="1.044108"
         y="1.0441148" />
    </clipPath>
  </defs>
  <sodipodi:namedview
     id="base"
     pagecolor="#ffffff"
     bordercolor="#666666"
     borderopacity="1.0"
     inkscape:pageopacity="0.0"
     inkscape:pageshadow="2"
     inkscape:zoom="1.4142136"
     inkscape:cx="104.50467"
     inkscape:cy="246.56013"
     inkscape:document-units="mm"
     inkscape:current-layer="layer1"
     showgrid="false"
     units="px"
     inkscape:window-width="1920"
     inkscape:window-height="1017"
     inkscape:window-x="-8"
     inkscape:window-y="-8"
     inkscape:window-maximized="1"
     showguides="false" />
  <metadata
     id="metadata5">
    <rdf:RDF>
      <cc:Work
         rdf:about="">
        <dc:format>image/svg+xml</dc:format>
        <dc:type
           rdf:resource="http://purl.org/dc/dcmitype/StillImage" />
        <dc:title />
      </cc:Work>
    </rdf:RDF>
  </metadata>
  <g
     inkscape:label="Layer 1"
     inkscape:groupmode="layer"
     id="layer1"
     transform="translate(0,-161.53332)"
     style="display:inline">
    <path
       id="path821"
       style="opacity:1;fill:#000000;fill-opacity:1;fill-rule:nonzero;stroke:#000000;stroke-width:0.62294644;stroke-miterlimit:4;stroke-dasharray:none;stroke-opacity:1;paint-order:stroke fill markers"
       d="M 119.14459,272.03036 99.413855,260.56422 a 44.588337,44.588337 0 0 1 -9.172379,7.07337 l 21.051254,12.26617 a 66.882509,66.882509 0 0 0 7.85186,-7.8734 z M 24.837536,217.2287 5.1814727,205.80615 A 66.882509,66.882509 0 0 0 2.2577009,216.371 l 20.9785931,12.22389 a 44.588337,44.588337 0 0 1 1.601242,-11.36619 z m -23.6829457,7.03326 a 66.882509,66.882509 0 0 0 32.9785047,62.82998 66.882509,66.882509 0 0 0 70.838535,-2.3376 L 82.043924,271.39478 A 44.588337,44.588337 0 0 1 45.333526,267.81707 44.588337,44.588337 0 0 1 24.012528,237.58086 Z M 101.3392,171.43687 a 66.882509,66.882509 0 0 0 -76.461258,6.57089 l 21.217448,12.36305 a 44.588337,44.588337 0 0 1 44.043379,0.34085 44.588337,44.588337 0 0 1 22.103771,38.20196 l 21.16475,12.3323 A 66.882509,66.882509 0 0 0 101.3392,171.43687 Z m -80.184848,9.86284 a 66.882509,66.882509 0 0 0 -4.826585,5.19864 l 19.730719,11.46609 a 44.588337,44.588337 0 0 1 5.582709,-4.72743 z m 90.808798,52.91264 a 44.588337,44.588337 0 0 1 -1.32857,7.08759 l 19.65608,11.42263 a 66.882509,66.882509 0 0 0 2.08553,-6.61589 z m -25.975714,17.16342 a 28.670949,28.670949 0 0 1 -40.362717,-3.8601 28.670949,28.670949 0 0 1 3.860207,-40.36272 28.670949,28.670949 0 0 1 40.36265,3.86019 28.670949,28.670949 0 0 1 -3.86014,40.36263 z"
       inkscape:connector-curvature="0" />
  </g>
</svg>
